<svg xmlns="http://www.w3.org/2000/svg" width="16" height="16" viewBox="0 0 16 16" fill="#8A8F98"><path fill-rule="evenodd" clip-rule="evenodd" d="M8.88988 8.41959C8.85635 8.19776 8.96598 7.9475 9.17655 8.009L9.9596 8.24531C10.2634 8.33403 10.571 8.1547 10.6468 7.84478L10.6343 7.15935C10.7101 6.84943 11.0178 6.67011 11.3215 6.75882L11.9033 7.11244C12.2071 7.20116 12.5148 7.02184 12.5905 6.71192L12.5781 6.02649C12.6538 5.71657 12.9615 5.53724 13.2653 5.62596L13.847 5.97958C14.1508 6.0683 14.4585 5.88897 14.5342 5.57905L14.9828 3.74436C15.0765 3.36133 14.7748 2.98345 14.389 3.00056L12.7791 3.07195C12.6913 3.07584 12.6064 3.10076 12.5309 3.14473L8.37023 5.56972C7.94026 5.82032 7.39892 5.7287 6.96521 5.45409C5.75524 4.68801 4.20962 4.59206 2.92533 5.34059C1.04673 6.4355 0.438645 8.92267 1.56714 10.8958C2.69563 12.869 5.13335 13.581 7.01195 12.4861C8.43802 11.6549 9.13195 10.0215 8.88988 8.41959ZM5.1402 11.7371C4.12988 11.8226 3.09688 11.3049 2.53904 10.3295C1.9812 9.35414 2.0536 8.1922 2.63206 7.35165C2.98815 6.83422 3.7149 7.04615 4.03733 7.60991L5.62128 10.3795C5.94371 10.9432 5.76213 11.6845 5.1402 11.7371Z"/></svg>