<svg xmlns="http://www.w3.org/2000/svg" width="16" height="16" viewBox="0 0 16 16" fill="#8A8F98"><path fill-rule="evenodd" clip-rule="evenodd" d="M3.05025 12.9497C5.78392 15.6834 10.2161 15.6834 12.9497 12.9497C15.6834 10.2161 15.6834 5.78392 12.9497 3.05025C10.2161 0.316582 5.78392 0.316582 3.05025 3.05025C0.316582 5.78392 0.316583 10.2161 3.05025 12.9497ZM8.75 5.17157C8.75 4.75736 8.41421 4.42157 8 4.42157C7.58579 4.42157 7.25 4.75736 7.25 5.17157V7.25L5.17157 7.25C4.75736 7.25 4.42157 7.58579 4.42157 8C4.42157 8.41421 4.75736 8.75 5.17157 8.75L7.25 8.75L7.25 10.8284C7.25 11.2426 7.58579 11.5784 8 11.5784C8.41421 11.5784 8.75 11.2426 8.75 10.8284L8.75 8.75L10.8284 8.75C11.2426 8.75 11.5784 8.41421 11.5784 8C11.5784 7.58579 11.2426 7.25 10.8284 7.25L8.75 7.25V5.17157Z"/></svg>