<svg width="16" height="16" viewBox="0 0 16 16" fill="none" xmlns="http://www.w3.org/2000/svg"><path d="M7.28033 8.71967C6.98744 8.42678 6.51256 8.42678 6.21967 8.71967L4 11L2.75 9.75C2.33578 9.75 2 10.0858 2 10.5L2 13.25C2 13.6642 2.33578 14 2.75 14L5.5 14C5.91421 14 6.25 13.6642 6.25 13.25L5 12L7.28033 9.78033C7.57322 9.48744 7.57322 9.01256 7.28033 8.71967Z" fill="white"/><path d="M8.71967 7.28033C9.01256 7.57322 9.48744 7.57322 9.78033 7.28033L12 5L13.25 6.25C13.6642 6.25 14 5.91421 14 5.5L14 2.75C14 2.33579 13.6642 2 13.25 2L10.5 2C10.0858 2 9.75 2.33579 9.75 2.75L11 4L8.71967 6.21967C8.42678 6.51256 8.42678 6.98744 8.71967 7.28033Z" fill="white"/></svg>