<svg xmlns="http://www.w3.org/2000/svg" width="24" height="24" viewBox="0 0 24 24" fill="#fff"><path fill-rule="evenodd" clip-rule="evenodd" d="M9.005 1.93c-3.422.254-6.331.476-6.464.492-.38.08-.727.318-.892.651L1.5 3.36l.033 13.786.215.429c.132.238.959 1.35 1.868 2.478 1.802 2.255 1.934 2.366 2.612 2.446.198.015 1.703-.048 3.306-.143 1.62-.096 4.232-.255 5.786-.334 6.662-.397 6.315-.365 6.712-.683.48-.381.43.254.463-8.132.016-7.1 0-7.576-.116-7.782-.116-.254-.347-.413-3.389-2.462-2.033-1.382-2.182-1.445-3.091-1.461-.38-.016-3.488.19-6.894.429Zm7.687.905c.298.127 2.397 1.525 2.695 1.795.082.08.115.159.066.19-.083.08-13.093.826-13.473.763a1.504 1.504 0 0 1-.562-.207C4.823 4.98 3.35 3.82 3.35 3.74c0-.222-.05-.222 5.737-.635 1.107-.064 2.942-.19 4.05-.286 2.397-.175 3.108-.175 3.554.016Zm4.133 3.59c.1.095.182.27.215.444.016.159.033 3.113.016 6.544-.016 5.876-.033 6.258-.148 6.416a.602.602 0 0 1-.315.254c-.28.112-13.902.858-14.183.779a.908.908 0 0 1-.397-.239l-.165-.158-.017-6.353c-.016-4.463 0-6.433.05-6.608a.779.779 0 0 1 .231-.349c.116-.08.926-.143 3.703-.302 1.95-.095 4.976-.27 6.695-.38 4.133-.24 4.117-.24 4.315-.049Z"/><path fill-rule="evenodd" clip-rule="evenodd" d="M17.172 8.6c-.744.048-1.406.112-1.472.16a.683.683 0 0 0-.396.507c-.017.207.05.239.793.334l.314.032v2.811c0 1.668-.016 2.763-.066 2.732-.033-.032-.992-1.461-2.149-3.145-1.157-1.715-2.116-3.113-2.133-3.113-.016-.016-.76.016-1.67.08-1.107.063-1.718.142-1.834.206-.199.095-.43.445-.43.667 0 .143.265.222.81.222h.298v8.069l-.48.143c-.347.095-.48.158-.545.301-.1.223-.1.413.016.413.033 0 .81-.031 1.703-.095 1.752-.095 1.95-.143 2.133-.492.066-.096.115-.207.115-.254 0-.016-.248-.096-.529-.16-.297-.063-.595-.142-.661-.142-.116-.032-.116-.239-.116-3.066v-3.033l2.083 3.129c2.182 3.287 2.447 3.669 2.794 3.827.413.207 1.471.064 2-.27l.166-.095.033-8.973.363-.064c.43-.08.628-.27.628-.604 0-.206-.016-.222-.215-.206-.115 0-.826.048-1.553.08Z"/></svg>