<svg xmlns="http://www.w3.org/2000/svg" width="16" height="16" viewBox="0 0 16 16" fill="#8A8F98"><path fill-rule="evenodd" clip-rule="evenodd" d="M1.254 7.387a.867.867 0 0 0 0 1.226l1.542 1.543v2.18c0 .48.389.868.868.868h2.18l1.543 1.542a.867.867 0 0 0 1.226 0l1.543-1.542h2.18a.867.867 0 0 0 .868-.868v-2.18l1.542-1.543a.867.867 0 0 0 0-1.226l-1.542-1.542V3.664a.867.867 0 0 0-.868-.868h-2.18L8.613 1.254a.867.867 0 0 0-1.226 0L5.845 2.796H3.664a.867.867 0 0 0-.868.868v2.18L1.254 7.388Zm9.556-1.234a.543.543 0 0 1 .028.8L8.104 9.702c-.37.373-.989.4-1.394.06L5.201 8.497a.543.543 0 0 1-.05-.798c.22-.234.6-.255.848-.047l1.363 1.142 2.6-2.615a.626.626 0 0 1 .848-.026Z"/></svg>