<svg xmlns="http://www.w3.org/2000/svg" width="46" height="46" fill="currentColor" viewBox="0 0 256 256" style="transform:translateY(3px)"><path d="M209.938 223.496a2.464 2.464 0 0 0 3.389.108 130.68 130.68 0 0 0 5.145-4.873c50.037-50.038 50.037-131.165 0-181.203-50.038-50.037-131.165-50.037-181.203 0a130.253 130.253 0 0 0-4.873 5.145 2.465 2.465 0 0 0 .108 3.39l177.434 177.433ZM193.66 238.115c1.374-.823 1.583-2.715.45-3.847L21.732 61.89c-1.132-1.133-3.024-.923-3.847.45a127.11 127.11 0 0 0-6.882 13.176 2.47 2.47 0 0 0 .515 2.758l166.208 166.208a2.47 2.47 0 0 0 2.758.515 127.23 127.23 0 0 0 13.176-6.882ZM154.767 253.42c1.901-.406 2.554-2.745 1.179-4.119L6.699 100.053c-1.374-1.374-3.713-.72-4.12 1.18a128.594 128.594 0 0 0-2.502 17.593 2.474 2.474 0 0 0 .722 1.926l134.449 134.449c.508.508 1.21.774 1.926.722a128.501 128.501 0 0 0 17.593-2.503ZM100.681 253.357c2.362.511 3.819-2.305 2.11-4.014L6.657 153.209c-1.71-1.709-4.525-.252-4.014 2.11 5.022 23.239 16.564 45.351 34.626 63.412 18.061 18.062 40.173 29.604 63.412 34.626Z"/></svg>